# xmcd
#
# Track frame offsets:
#	182
#	17912
#	32085
#	47692
#	60622
#	71640
#	87662
#	101355
#	114417
#	129430
#	141647
#	153900
#	167870
#	181535
#	195230
#	209455
#	222117
#
# Disc length: 3157 seconds
#
# Revision: 0
# Processed by: cddbd v1.5.2PL0 Copyright (c) Steve Scherf et al.
# Submitted via: dBpowerAMP V4.0
#
DISCID=ed0c5311
DTITLE=Marimba de concierto de Guatemala - Musica Indigena de Guatemala
DYEAR=1994
DGENRE=Marimbna
TTITLE0=San Juan y la Magadalena
TTITLE1=Cofradia mixqueña
TTITLE2=Sonsonete de la tierra
TTITLE3=Mi lindo Cauque
TTITLE4=La cruz de palo
TTITLE5=Fin de siglo
TTITLE6=Kixel
TTITLE7=Qoj et zan chumil
TTITLE8=Quejas de mi raza
TTITLE9=Son clasico
TTITLE10=El atiteco
TTITLE11=La tapisca del cafe
TTITLE12=Chinjonti nan
TTITLE13=El rey Quiche
TTITLE14=Gran cofrade
TTITLE15=Son para el camino
TTITLE16=Amanecer luqueño
EXTD=
EXTT0=
EXTT1=
EXTT2=
EXTT3=
EXTT4=
EXTT5=
EXTT6=
EXTT7=
EXTT8=
EXTT9=
EXTT10=
EXTT11=
EXTT12=
EXTT13=
EXTT14=
EXTT15=
EXTT16=
PLAYORDER=
